<?xml version="1.0" encoding="UTF-8" standalone="no"?>
<svg width="200px" height="48px" viewBox="0 0 200 48" version="1.1" xmlns="http://www.w3.org/2000/svg" xmlns:xlink="http://www.w3.org/1999/xlink">
    <!-- Generator: Sketch 42 (36781) - http://www.bohemiancoding.com/sketch -->
    <title>Page 1</title>
    <desc>Created with Sketch.</desc>
    <defs></defs>
    <g id="Page-1" stroke="none" stroke-width="1" fill="none" fill-rule="evenodd">
        <g id="Main-web-(v2)" transform="translate(-82.000000, -30.000000)">
            <g id="hero-copy" transform="translate(0.000000, 13.000000)">
                <g id="Page-1" transform="translate(82.383410, 17.000000)">
                    <polygon id="Stroke-1" stroke="#4A4A4A" points="42.4907084 0.569034074 45.5394947 4.65883407 50.4380217 3.0720637 47.4237093 7.18728593 50.4724956 11.2770859 45.5610409 9.72950815 42.5467285 13.8447304 42.5251823 8.7740563 37.6137276 7.22647852 42.5122546 5.63970815"></polygon>
                    <g id="Group-20" transform="translate(0.000000, 5.753896)" fill="#4A4A4A">
                        <path d="M50.4158291,33.0632948 L45.64227,3.92201333 C45.64227,3.92201333 52.6512466,32.5823911 52.8483943,32.2169467 L50.4158291,33.0632948 Z" id="Fill-2"></path>
                        <path d="M7.36448874,13.13598 L7.36448874,32.6920244 L4.4008099,32.6920244 L4.4008099,13.13598 L0,13.13598 L0,10.8395059 L4.4008099,10.8395059 L4.4008099,6.60246889 C4.4008099,5.63112815 4.44605691,4.61529852 4.85004803,3.64395778 C6.15143808,0.729935556 9.42969133,0.729935556 10.5964177,0.729935556 C12.6616203,0.729935556 13.8294239,0.99580963 14.8625639,1.2150763 L14.8625639,3.73399481 C13.6495132,3.46706148 12.886778,3.29016519 11.0456558,3.29016519 C7.67906316,3.29016519 7.36448874,5.3228837 7.36448874,7.26344667 L7.36448874,10.8395059 L14.8625639,10.8395059 L14.8625639,13.13598 L7.36448874,13.13598" id="Fill-4"></path>
                        <path d="M21.3900908,22.8927111 C20.0423764,23.8651111 19.5047989,25.0557185 19.5047989,26.2028963 C19.5047989,30.2206667 24.5767727,30.6168296 26.5988829,30.6168296 C31.0880322,30.6168296 34.994357,28.9834519 36.6103214,27.1752963 C38.0022055,25.5853481 38.0916222,23.5536889 38.0474525,20.8599926 C31.3131899,20.8599926 24.0391952,20.9945185 21.3900908,22.8927111 M41.7296969,32.8243259 C39.2141788,32.8243259 38.4061966,31.8095556 38.0474525,29.4696519 C36.295747,30.749237 32.9291544,33.2226074 26.2390615,33.2226074 C22.152826,33.2226074 20.4474448,32.3381259 19.7741263,31.9864519 C17.7530934,30.8382148 16.3159623,28.7631259 16.3159623,26.1594667 C16.3159623,23.7750741 17.529013,21.8779407 19.0103137,20.8186815 C22.198073,18.5666963 29.337404,18.4766593 38.0022055,18.3908593 C38.0022055,15.7840222 37.9569585,12.9144889 28.8429189,12.9144889 C21.7940819,12.9144889 20.5821085,14.7681926 19.6836323,17.3729111 L16.586367,17.2426222 C16.7652004,16.4460593 17.0797749,15.4302296 17.7530934,14.4175778 C20.1339477,10.8394 24.4884333,10.2674 28.7093325,10.2674 C31.5372703,10.2674 35.3531011,10.5756444 37.7781251,11.9431481 C40.6060629,13.532037 40.7418039,16.6685037 40.7418039,17.9046593 L40.7418039,27.2187259 C40.7418039,29.6031185 41.2362891,30.6168296 44.422971,30.4399333 L44.422971,32.6495481 C43.5255721,32.7364074 42.6712655,32.8243259 41.7296969,32.8243259" id="Fill-6"></path>
                        <path d="M68.6675014,13.0914911 C67.1862006,13.0914911 65.2104147,13.3552467 63.3692925,14.3731948 C62.3372299,14.9451948 61.349337,15.8741652 60.7643578,16.9779133 C60.0468696,18.3909652 59.8669589,19.5815726 59.8669589,20.8611578 L59.8669589,32.6920244 L56.9496044,32.6920244 L56.9496044,10.8861133 L59.8669589,10.8861133 L59.8669589,14.4176837 C60.1815333,13.9738541 60.5855244,13.446343 61.3935067,12.7376985 C64.5823432,10.13298 68.4423437,10.1774689 70.9567844,10.2219578 L70.9567844,13.2683874 C70.0593854,13.1794096 69.4765609,13.0914911 68.6675014,13.0914911" id="Fill-8"></path>
                        <path d="M87.7860847,34.3791067 C85.7650519,38.9275659 84.7782362,41.3108993 78.17756,41.3108993 C76.2922681,41.3108993 75.1244645,41.0895141 73.5979167,40.7812696 L73.5979167,38.0430844 C74.9908781,38.5282252 75.9776937,38.8375289 78.0428963,38.8375289 C82.9812837,38.8375289 84.0144237,36.4541956 85.0023166,33.9384548 L73.1045089,10.8942696 L76.6962593,10.8942696 L86.5741114,30.7151289 L95.0600795,10.8942696 L98.2467614,10.8942696 L87.7860847,34.3791067" id="Fill-10"></path>
                        <path d="M122.454125,32.6919185 L122.454125,20.8186815 C122.454125,17.8146222 122.230044,13.0468963 112.981341,13.0468963 C109.928245,13.0468963 106.6069,13.7534222 104.541697,15.873 C103.149813,17.2871111 102.97098,18.4342889 102.97098,20.4648889 L102.97098,32.6919185 L99.9620538,32.6919185 L99.9620538,10.8849481 L102.97098,10.8849481 L102.97098,13.932437 C104.137706,12.7831407 106.696316,10.2674 113.340085,10.2674 C116.347934,10.2674 119.266365,10.9273185 121.152735,11.987637 C125.282062,14.2396222 125.418881,17.9491481 125.418881,20.6417852 L125.418881,32.6919185 L122.454125,32.6919185" id="Fill-12"></path>
                        <path d="M134.398149,22.8927111 C133.052589,23.8651111 132.512857,25.0557185 132.512857,26.2028963 C132.512857,30.2206667 137.585908,30.6168296 139.608018,30.6168296 C144.097168,30.6168296 148.003492,28.9834519 149.619457,27.1752963 C151.010264,25.5853481 151.101835,23.5536889 151.055511,20.8599926 C144.321248,20.8599926 137.047253,20.9945185 134.398149,22.8927111 M154.737755,32.8243259 C152.223314,32.8243259 151.415332,31.8095556 151.055511,29.4696519 C149.304883,30.749237 145.937213,33.2226074 139.248197,33.2226074 C135.161961,33.2226074 133.457658,32.3381259 132.782184,31.9864519 C130.760074,30.8382148 129.324021,28.7631259 129.324021,26.1594667 C129.324021,23.7750741 130.535994,21.8779407 132.017295,20.8186815 C135.207208,18.5666963 142.34654,18.4766593 151.010264,18.3908593 C151.010264,15.7840222 150.966094,12.9144889 141.852054,12.9144889 C134.803217,12.9144889 133.591244,14.7681926 132.690613,17.3729111 L129.592271,17.2426222 C129.773259,16.4460593 130.086756,15.4302296 130.760074,14.4175778 C133.139851,10.8394 137.497569,10.2674 141.718468,10.2674 C144.545328,10.2674 148.363314,10.5756444 150.786183,11.9431481 C153.614121,13.532037 153.750939,16.6685037 153.750939,17.9046593 L153.750939,27.2187259 C153.750939,29.6031185 154.245425,30.6168296 157.431029,30.4399333 L157.431029,32.6495481 C156.532553,32.7364074 155.680401,32.8243259 154.737755,32.8243259" id="Fill-14"></path>
                        <path d="M160.61825,32.6919185 L163.536682,32.6919185 L163.536682,10.8394 L160.61825,10.8394 L160.61825,32.6919185 Z M160.61825,6.99958519 L163.581929,6.99958519 L163.581929,2.80385926 L160.61825,2.80385926 L160.61825,6.99958519 Z" id="Fill-16"></path>
                        <polygon id="Fill-18" points="167.802828 32.6919185 170.810676 32.6919185 170.810676 1.52533333 167.802828 1.52533333"></polygon>
                        <path d="M198.468662,29.1169185 C198.019424,29.911363 197.347183,30.5744593 196.582293,31.1030296 C194.29301,32.6919185 191.061081,33.2226074 187.602917,33.2226074 C182.348878,33.2226074 175.838696,32.3381259 174.222731,27.3511333 L177.411568,26.598 C177.814482,27.3511333 178.353137,28.4093333 180.239506,29.3372444 C182.080628,30.2206667 185.132646,30.6168296 187.376682,30.6168296 C190.788522,30.6168296 194.066775,29.8668741 195.459736,28.2779852 C195.910052,27.7472963 196.269873,26.9984 196.269873,26.2473852 C196.269873,25.8035556 196.13521,25.0112296 195.414489,24.3470741 C194.516013,23.5526296 193.170453,23.3344222 190.476102,23.1575259 C188.770721,23.0261778 187.109509,22.8927111 185.404128,22.8492815 C182.485696,22.7168741 180.375247,22.7168741 178.714035,22.0537778 C177.098071,21.4362296 175.166455,19.9331407 175.166455,17.1102148 C175.166455,16.269163 175.345288,15.210963 175.883943,14.1951333 C177.098071,12.0755556 179.250536,11.3256 180.150089,11.0618444 C182.305786,10.3987481 184.865473,10.2674 186.526685,10.2674 C189.398792,10.2674 192.99162,10.5756444 195.414489,11.8552296 C197.526016,12.9589778 198.332921,14.5033778 198.781082,15.3889185 L195.503906,16.0477778 C195.280903,15.6071259 194.966329,14.9450889 194.021528,14.3720296 C192.00265,13.0913852 188.321483,12.8265704 186.389867,12.8265704 C184.953813,12.8265704 181.766054,13.0034667 179.924931,14.1495852 C178.264797,15.210963 178.264797,16.5339778 178.264797,16.7998519 C178.264797,17.5053185 178.534125,18.1228667 178.937038,18.5666963 C179.790268,19.448 180.958071,19.5804074 183.876503,19.7562444 C186.075292,19.8907704 188.321483,19.9331407 190.521349,20.1121556 C193.170453,20.3335407 194.472921,20.6417852 195.37032,20.9510889 C198.199335,21.9637407 199.276645,24.1299259 199.276645,26.1594667 C199.276645,27.2621556 198.96207,28.2779852 198.468662,29.1169185" id="Fill-19"></path>
                    </g>
                </g>
            </g>
        </g>
    </g>
</svg>